<svg version="1.1" xmlns="http://www.w3.org/2000/svg" xmlns:xlink="http://www.w3.org/1999/xlink" width="700" height="700" viewBox="34,256.5,700,700"><g id="document" fill="#ffffff" fill-rule="nonzero" stroke="#000000" stroke-width="0" stroke-linecap="butt" stroke-linejoin="miter" stroke-miterlimit="10" stroke-dasharray="" stroke-dashoffset="0" font-family="none" font-weight="none" font-size="none" text-anchor="none" style="mix-blend-mode: normal"><rect x="34" y="183.21429" transform="scale(1,1.4)" width="700" height="500" id="Shape 1 1" vector-effect="non-scaling-stroke"/></g><g fill="#000000" fill-rule="evenodd" stroke="none" stroke-width="1" stroke-linecap="butt" stroke-linejoin="miter" stroke-miterlimit="10" stroke-dasharray="" stroke-dashoffset="0" font-family="none" font-weight="none" font-size="none" text-anchor="none" style="mix-blend-mode: normal"><g id="stage"><g id="layer1 1"><path d="M315.51427,382.41453c-43.59857,7.17473 -90.10709,42.52999 -108.97256,82.84014l-9.89069,21.14255l-20.87223,1.24031c-66.49346,3.95946 -118.7106,69.36844 -108.17113,135.5057c9.05428,56.79676 52.49701,95.82843 109.56409,98.43627l25.4423,1.16399l8.36416,-14.07595c13.16639,-22.1507 44.00246,-40.34513 68.37619,-40.34513c8.92707,0 10.92747,-1.37706 12.70525,-8.74579c8.10655,-33.62836 40.77447,-70.9077 73.5537,-83.93734c27.8943,-11.08966 68.85005,-10.44088 94.60402,1.49474c10.49495,4.86584 23.37512,12.89607 28.62259,17.84777c6.64362,6.26835 14.37172,9.67762 25.4423,11.22324c8.74579,1.21805 22.34152,5.03122 30.21273,8.46593c16.55976,7.23197 39.27973,28.26958 44.72121,41.40735c2.06401,4.98669 6.08707,9.09562 8.93343,9.13379c9.15923,0.12403 33.50433,12.72115 43.79892,22.66591c11.82431,11.42359 15.87282,10.21508 34.36619,-10.25325c18.22941,-20.17575 25.21968,-38.47512 25.4264,-66.54752c0.14311,-19.37113 -1.38661,-27.14058 -8.132,-41.34374c-14.70247,-30.95374 -43.93568,-53.02812 -74.83217,-56.51053c-13.09324,-1.47565 -14.76608,-2.72869 -21.6991,-16.27353c-12.66709,-24.749 -39.72497,-46.09509 -66.64929,-52.58606c-13.24908,-3.18983 -46.51807,-2.76367 -55.89992,0.72193c-7.16837,2.6619 -9.7285,1.01133 -25.99567,-16.72513c-33.96229,-37.03445 -83.39669,-54.1126 -133.01872,-45.94562M393.4186,424.61377c30.69296,14.05369 55.07622,46.29227 60.44137,79.92381l2.02902,12.72115l-9.89706,-17.49158c-12.45401,-22.01713 -37.74684,-47.86969 -57.17839,-58.44415c-18.53472,-10.08787 -47.28134,-17.76191 -68.40163,-18.26121l-16.02865,-0.37845l15.90144,-4.28067c21.83268,-5.88035 52.38888,-3.28524 73.1339,6.2111M551.64745,471.6375c6.55775,3.29478 15.55479,11.48402 19.99447,18.19443c8.02069,12.1169 15.71698,44.91838 10.54265,44.91838c-1.48837,0 -2.71915,-2.50289 -2.73505,-5.5655c-0.01908,-3.06262 -4.23296,-12.89289 -9.36913,-21.84858c-9.86843,-17.20536 -31.45623,-34.18173 -48.12093,-37.84224c-5.12662,-1.12582 -8.48183,-3.40609 -7.45777,-5.0662c2.50607,-4.05487 22.42739,-0.19082 37.14576,7.20971M229.6465,507.71787l11.13101,4.28703l-17.61879,0.2417c-38.2525,0.52475 -75.72583,16.89369 -95.32277,41.63633c-12.8102,16.17494 -24.39917,42.45048 -27.32503,61.96473l-2.3884,15.90144l-2.66508,-12.41266c-3.28842,-15.30673 1.90499,-46.14598 10.66032,-63.30681c9.33096,-18.29302 32.32444,-39.08574 51.27896,-46.37178c19.53651,-7.50866 55.29248,-8.46911 72.24978,-1.93998M383.20987,586.87523c-21.22524,6.93939 -40.90168,19.8927 -53.42565,35.17398c-12.32362,15.04276 -23.81081,41.21335 -23.81081,54.25889c0,7.34646 -1.10992,7.91574 -15.42758,7.91574c-44.54311,0 -76.80077,30.72158 -76.80077,73.14662c0,22.23339 11.41405,46.70889 27.51267,58.9848c22.55142,17.20218 25.98295,17.46614 199.49627,15.28128c149.27317,-1.87955 160.17837,-2.40112 171.72282,-8.19242c43.84345,-22.00123 55.68684,-82.25496 23.3942,-119.03499c-11.29638,-12.86426 -30.9919,-23.18748 -44.45088,-23.29561c-7.19381,-0.05725 -9.90342,-2.57285 -15.41167,-14.28903c-9.33732,-19.86408 -27.6367,-35.36162 -49.13545,-41.61089c-9.83981,-2.85908 -20.66233,-4.47466 -24.0557,-3.58736c-4.14391,1.08448 -10.05607,-2.09581 -18.02269,-9.6967c-25.38824,-24.21789 -70.27164,-35.28847 -101.58475,-25.05431M511.69032,636.72306c11.36317,4.29339 25.60132,17.6983 31.86966,30.0092l4.85948,9.54086l-10.70803,-9.97974c-16.17176,-15.07138 -28.86747,-20.23299 -49.76514,-20.23299c-13.35085,0 -22.94578,2.14987 -33.55204,7.5182c-16.1654,8.18606 -18.89091,6.92031 -7.69312,-3.57146c16.91595,-15.85055 43.70669,-21.32701 64.98918,-13.28406" id="CompoundPath 1"/></g></g></g></svg>