<svg version="1.1" xmlns="http://www.w3.org/2000/svg" xmlns:xlink="http://www.w3.org/1999/xlink" width="700" height="700" viewBox="34,256.5,700,700"><g id="document" fill="#ffffff" fill-rule="nonzero" stroke="#000000" stroke-width="0" stroke-linecap="butt" stroke-linejoin="miter" stroke-miterlimit="10" stroke-dasharray="" stroke-dashoffset="0" font-family="none" font-weight="none" font-size="none" text-anchor="none" style="mix-blend-mode: normal"><rect x="34" y="183.21429" transform="scale(1,1.4)" width="700" height="500" id="Shape 1 1" vector-effect="non-scaling-stroke"/></g><g fill="#000000" fill-rule="evenodd" stroke="none" stroke-width="1" stroke-linecap="butt" stroke-linejoin="miter" stroke-miterlimit="10" stroke-dasharray="" stroke-dashoffset="0" font-family="none" font-weight="none" font-size="none" text-anchor="none" style="mix-blend-mode: normal"><g id="stage"><g id="layer1 1"><path d="M252.24875,319.13128c-50.32318,20.46556 -90.81126,58.36208 -116.09429,108.66124c-59.83801,118.38343 -11.42847,263.01687 107.6337,321.5933c38.09669,18.53057 60.13694,23.47081 104.54304,23.43077c32.77746,-0.02936 40.30125,-0.91545 61.28726,-7.20618c29.00355,-8.69813 54.1478,-21.57585 75.13914,-38.48636c23.3854,-18.84017 22.07494,-20.37749 -17.65782,-20.67908c-50.32318,-0.38433 -88.63072,-11.35374 -127.34928,-36.46863c-68.95784,-44.72638 -108.25289,-117.2366 -108.10343,-199.48051c0.09074,-50.54204 14.98352,-98.12687 43.37322,-138.6016c16.81977,-23.97524 11.76476,-26.80967 -22.77154,-12.76295M534.15466,337.50438c-1.32914,3.41893 -3.50701,9.07979 -4.84149,12.58146c-1.56935,4.11286 -6.61901,7.91079 -14.28159,10.74255c-15.66945,5.78897 -16.25128,10.99076 -1.96702,17.62579c8.82891,4.09952 12.79231,8.17502 17.47366,17.97809c3.33086,6.97132 7.74264,12.67755 9.80308,12.67755c2.05777,0 5.19112,-4.50253 6.95797,-10.00859c4.15557,-12.94177 9.29598,-18.65067 18.64533,-20.70577c8.546,-1.87628 14.53781,-7.75065 12.03433,-11.79946c-0.92079,-1.49195 -6.54962,-4.17158 -12.50406,-5.95444c-8.92232,-2.67429 -11.83682,-5.35393 -16.56888,-15.22106c-6.73378,-14.04672 -11.39645,-16.5502 -14.75132,-7.91613M379.02421,442.72267c0,2.33801 -2.40206,4.88152 -5.33791,5.64751c-6.78449,1.77486 -6.94996,8.85827 -0.24554,10.61177c2.79974,0.73129 5.69022,3.62177 6.42151,6.42151c1.7535,6.70442 8.83692,6.53894 10.61177,-0.24554c0.76599,-2.93585 3.1814,-5.33791 5.36193,-5.33791c7.22754,0 7.56916,-7.95616 0.48308,-11.1856c-3.64046,-1.65742 -6.61901,-4.6253 -6.61901,-6.59232c0,-1.96435 -2.40206,-3.57373 -5.33791,-3.57373c-3.104,0 -5.33791,1.78019 -5.33791,4.25432M632.7486,466.0627c-4.45716,10.98543 -7.91079,15.26376 -15.07961,18.6827c-5.11105,2.43943 -10.90803,4.43314 -12.88039,4.43314c-1.97236,0 -5.08169,1.80155 -6.90993,4.00344c-4.38777,5.2872 0.09608,10.82796 10.44096,12.8964c11.47385,2.2953 21.2449,12.34926 25.07485,25.80348c4.72405,16.59557 11.87419,16.45946 17.6338,-0.33362c5.52741,-16.1205 9.37071,-20.34279 21.93082,-24.10602c20.59901,-6.1733 19.62217,-14.37767 -2.46078,-20.63638c-11.66067,-3.30417 -12.29055,-4.11019 -21.57051,-27.65306c-4.39577,-11.1509 -9.78173,-8.85026 -16.17922,6.90993M555.35685,603.60473c-1.56935,2.93051 -2.85045,7.27291 -2.85045,9.65362c0,2.56487 -4.89487,6.49624 -12.01031,9.64294c-14.90612,6.59499 -15.32248,12.19713 -1.31846,17.69785c8.70881,3.4216 11.263,6.1039 13.76648,14.46575c4.20361,14.02537 11.87953,13.97199 17.41494,-0.1201c3.16271,-8.04691 6.46688,-11.32438 14.6846,-14.55115c13.10191,-5.14575 12.88839,-11.94091 -0.50977,-16.39807c-6.54962,-2.17787 -10.96141,-6.17864 -14.75666,-13.38482c-6.44553,-12.23183 -10.55572,-14.22821 -14.42037,-7.00601M641.20119,710.70196c-1.83357,2.93585 -5.1244,5.33791 -7.31294,5.33791c-5.81032,0 -4.87618,8.27377 1.11029,9.83778c2.79974,0.73129 5.69022,3.62177 6.42151,6.42151c1.60137,6.12526 12.50673,7.01669 12.50673,1.02221c0,-2.23659 2.97856,-5.2018 6.62168,-6.58699c7.51578,-2.85578 6.67506,-9.50149 -1.52931,-12.10639c-2.8024,-0.88876 -5.09237,-3.3362 -5.09237,-5.43933c0,-5.68488 -8.8903,-4.62797 -12.72559,1.5133M104.04958,757.88111c-1.51597,4.14489 -3.23478,8.91432 -3.82462,10.6011c-0.58717,1.68678 -5.35393,4.48385 -10.59576,6.21333c-12.18379,4.01945 -12.55477,11.11087 -0.85407,16.26195c5.36193,2.35936 10.54238,7.63855 13.56364,13.8252c6.12526,12.53342 11.59395,12.72826 16.66497,0.59251c2.55419,-6.11458 7.22754,-10.9881 13.32343,-13.89459c12.09571,-5.76762 11.56192,-13.68908 -1.20904,-17.96742c-6.77648,-2.27395 -9.77906,-5.3219 -12.01031,-12.20247c-3.84063,-11.84216 -11.35374,-13.55296 -15.05826,-3.42961M326.17886,834.00777c-1.76151,1.76151 -3.20275,4.80412 -3.20275,6.76314c0,1.95635 -4.20361,6.03985 -9.34135,9.07178c-11.77544,6.94729 -11.83949,11.87419 -0.21619,16.73169c6.08255,2.54085 9.42142,5.89039 10.00859,10.04328c1.34782,9.5175 11.54324,9.77639 16.03242,0.40835c1.96969,-4.11019 6.87523,-9.05043 10.89735,-10.97742c9.11449,-4.36908 9.38939,-10.39292 0.65923,-14.36966c-3.66181,-1.67077 -9.02641,-7.04872 -11.92223,-11.95426c-5.69289,-9.64828 -7.97217,-10.65981 -12.91508,-5.71691M556.25629,844.00568c-3.43228,8.57803 -6.27205,11.21496 -15.32515,14.23355c-14.92481,4.97494 -14.67126,11.35908 0.74998,18.84817c9.01574,4.37976 12.59214,8.00153 14.91413,15.10363c4.37976,13.38749 11.08952,13.5583 16.69966,0.42436c3.38958,-7.94015 7.52379,-12.11973 16.09114,-16.28331c13.40884,-6.51492 14.10544,-13.01117 1.82023,-16.9719c-10.9534,-3.5337 -14.37233,-6.6377 -18.70138,-16.99859c-4.96693,-11.8902 -11.08151,-11.27101 -16.24861,1.64408" id="CompoundPath 1"/></g></g></g></svg>