<svg version="1.1" xmlns="http://www.w3.org/2000/svg" xmlns:xlink="http://www.w3.org/1999/xlink" width="700" height="700" viewBox="34,256.5,700,700"><g id="document" fill="#ffffff" fill-rule="nonzero" stroke="#000000" stroke-width="0" stroke-linecap="butt" stroke-linejoin="miter" stroke-miterlimit="10" stroke-dasharray="" stroke-dashoffset="0" font-family="none" font-weight="none" font-size="none" text-anchor="none" style="mix-blend-mode: normal"><rect x="34" y="183.21429" transform="scale(1,1.4)" width="700" height="500" id="Shape 1 1" vector-effect="non-scaling-stroke"/></g><g fill="#000000" fill-rule="evenodd" stroke="none" stroke-width="1" stroke-linecap="butt" stroke-linejoin="miter" stroke-miterlimit="10" stroke-dasharray="" stroke-dashoffset="0" font-family="none" font-weight="none" font-size="none" text-anchor="none" style="mix-blend-mode: normal"><g id="stage"><g id="layer1 1"><path d="M466.01967,350.09843c-3.57904,3.57904 -3.84843,6.41341 -3.84843,40.4085c0,33.9951 0.26939,36.82946 3.84843,40.4085c2.1378,2.1378 6.41341,3.84843 9.62107,3.84843c3.20767,0 7.48327,-1.71063 9.62107,-3.84843c3.57904,-3.57904 3.84843,-6.41341 3.84843,-40.4085c0,-33.9951 -0.26939,-36.82946 -3.84843,-40.4085c-2.1378,-2.1378 -6.41341,-3.84843 -9.62107,-3.84843c-3.20767,0 -7.48327,1.71063 -9.62107,3.84843M617.92678,406.61261c-2.58807,1.19686 -14.87995,12.67672 -27.31422,25.51316c-20.23119,20.8835 -22.60952,24.05653 -22.60952,30.16591c0,7.59295 6.87714,14.77604 14.21032,14.84147c4.65852,0.04233 52.52336,-48.45364 54.23976,-54.95172c2.79204,-10.5851 -8.59739,-20.15615 -18.52634,-15.56882M320.36241,408.20393c-6.16903,2.98061 -8.88602,12.1264 -5.5148,18.5552c4.75473,9.06113 50.05074,52.26166 54.7997,52.26166c5.60716,0 15.55535,-10.00976 15.55535,-15.65156c0,-5.77072 -51.30725,-57.53016 -56.83937,-57.33774c-2.07623,0.0712 -5.67643,1.0487 -8.00088,2.17244M460.98016,457.85444c-16.81186,2.46299 -35.05726,9.62877 -50.04882,19.65585c-13.81201,9.23815 -30.35063,26.54454 -36.22911,37.90895l-2.79011,5.39742l12.89801,1.20456c19.4769,1.81838 34.08746,6.12093 54.27054,15.98252c31.98814,15.62847 60.22214,48.41708 70.27039,81.60593c2.91134,9.61722 4.30254,11.66651 8.45885,12.46506c12.492,2.39757 32.09974,9.83081 38.86913,14.73563c4.0928,2.96329 8.53966,5.38972 9.87892,5.38972c1.34118,0 6.13824,-5.45707 10.66015,-12.1264c22.99051,-33.90273 25.74791,-79.21221 7.07918,-116.32261c-18.55135,-36.8718 -50.87238,-59.92389 -92.30072,-65.82545c-14.97039,-2.13203 -16.91962,-2.1378 -31.01641,-0.0712M284.18141,539.42381c-32.29217,7.88543 -58.01891,31.37816 -68.56746,62.61394l-4.01968,11.90127l-9.88661,-1.19879c-14.76257,-1.78952 -32.84249,4.40453 -45.14977,15.46876c-10.93531,9.83274 -16.63676,20.2081 -19.82326,36.07132l-2.19168,10.91414l-10.82178,-0.15201c-21.2491,-0.29825 -37.56836,7.69301 -49.2445,24.11618c-17.41029,24.48755 -10.7121,57.66293 14.40852,71.38066l10.57163,5.77264l196.07745,-0.47143l196.07937,-0.47336l10.01746,-4.58733c16.50976,-7.55831 26.42716,-24.26819 26.43871,-44.54364c0.01539,-28.32444 -19.906,-49.85255 -49.76981,-53.78757l-9.84813,-1.29692l-1.0333,-11.40674c-2.08777,-23.00591 -18.26849,-41.34175 -40.57206,-45.97141c-18.84383,-3.91385 -39.39829,4.6489 -48.51714,20.2081c-5.89002,10.0521 -12.45736,12.77871 -18.21846,7.56601c-7.75074,-7.01569 -2.87093,-19.59812 13.02693,-33.59294c4.87211,-4.28715 10.87758,-8.30299 13.34828,-8.92258c6.53463,-1.64135 5.62063,-6.50384 -3.81379,-20.31008c-22.12269,-32.37298 -61.88274,-48.23813 -98.49091,-39.29823M387.21924,551.60216c4.7124,5.25118 11.59724,14.90304 15.30135,21.44922c9.92895,17.54114 9.59798,17.26213 22.72497,19.33066c16.58673,2.61693 31.16073,9.69419 41.74198,20.27737c8.5108,8.5108 20.19463,29.3308 20.19655,35.99243c0.00192,2.07045 3.12877,4.25251 8.93028,6.22868c20.92968,7.13114 37.57606,21.90718 46.45438,41.23399c4.31216,9.38439 5.03567,13.63883 5.12611,30.16783c0.09236,17.17169 -0.45989,20.38898 -5.1338,29.89844c-6.68857,13.6042 -20.53137,27.44699 -34.13556,34.13556l-10.6563,5.23771l-194.11475,0.51761l-194.11667,0.51569l0.90053,14.01983c1.56054,24.32784 13.3502,43.3564 32.29217,52.12504c8.65704,4.00814 9.30935,4.01776 252.09326,4.01776h243.41312l11.02575,-5.41474c11.94937,-5.86693 20.2004,-14.52589 26.87743,-28.19936c6.51539,-13.34635 6.19212,-39.44255 -0.67155,-54.16856c-13.36944,-28.68426 -39.55992,-44.02603 -75.15789,-44.02603c-8.24526,0 -15.00502,-0.64846 -15.02234,-1.44316c-0.15779,-6.7867 -6.40379,-28.85744 -10.39845,-36.74095c-12.76716,-25.19374 -41.75353,-44.49553 -66.95689,-44.58597c-4.53152,-0.01732 -9.19005,-0.66578 -10.35227,-1.44316c-1.1603,-0.77738 -3.63677,-7.69686 -5.50133,-15.3764c-5.25118,-21.63394 -14.35464,-38.59782 -29.10374,-54.23206c-20.00221,-21.20292 -44.39932,-33.64296 -73.83211,-37.64148l-10.49082,-1.42584l8.5666,9.54988M628.15206,551.5733c-9.51716,1.83378 -13.40985,16.51938 -6.27101,23.65822c3.56365,3.56365 6.41341,3.84843 38.48429,3.84843c32.07088,0 34.92064,-0.28478 38.48429,-3.84843c6.2537,-6.2537 5.79189,-14.43161 -1.168,-20.6853c-4.59502,-4.12744 -6.22291,-4.31794 -35.01878,-4.06779c-16.60982,0.14432 -32.14015,0.63691 -34.51079,1.09488M585.244,663.82235c-3.87922,3.87922 -3.88114,3.98505 -0.2463,9.14002c2.02235,2.86708 6.06897,9.97705 8.98993,15.7978c7.43901,14.81838 17.81245,23.16754 33.84116,27.23726c7.15423,1.81646 15.615,4.65083 18.79957,6.29795c5.4436,2.81513 5.86116,2.77087 6.9772,-0.74275c2.04352,-6.44227 -3.67333,-13.78892 -29.62905,-38.08405c-26.80238,-25.08791 -31.10685,-27.27189 -38.73251,-19.64623" id="CompoundPath 1"/></g></g></g></svg>