<svg version="1.1" xmlns="http://www.w3.org/2000/svg" xmlns:xlink="http://www.w3.org/1999/xlink" width="700" height="700" viewBox="34,256.5,700,700"><g id="document" fill="#ffffff" fill-rule="nonzero" stroke="#000000" stroke-width="0" stroke-linecap="butt" stroke-linejoin="miter" stroke-miterlimit="10" stroke-dasharray="" stroke-dashoffset="0" font-family="none" font-weight="none" font-size="none" text-anchor="none" style="mix-blend-mode: normal"><rect x="34" y="183.21429" transform="scale(1,1.4)" width="700" height="500" id="Shape 1 1" vector-effect="non-scaling-stroke"/></g><g fill="#000000" fill-rule="evenodd" stroke="none" stroke-width="1" stroke-linecap="butt" stroke-linejoin="miter" stroke-miterlimit="10" stroke-dasharray="" stroke-dashoffset="0" font-family="none" font-weight="none" font-size="none" text-anchor="none" style="mix-blend-mode: normal"><g id="stage"><g id="layer1 1"><path d="M178.72285,338.11377c-122.01122,72.179 -145.70175,241.90722 -48.61599,348.28133c11.11427,12.17811 20.29994,24.01403 20.41503,26.30346c0.11509,2.29254 2.12145,-1.96903 4.45753,-9.46563c10.18108,-32.64292 40.53458,-61.96992 71.82437,-69.39187l15.83308,-3.75453l-17.80834,-21.21137c-21.97347,-26.1697 -37.75056,-55.68644 -47.10112,-88.12095c-5.91018,-20.50215 -7.13889,-32.21365 -7.16377,-68.29382c-0.03422,-47.87566 5.07344,-71.21469 23.63455,-107.98542c4.99877,-9.89802 7.98498,-17.99498 6.63808,-17.99498c-1.3469,0 -11.2978,5.23518 -22.11344,11.63375M440.18972,572.21955c-10.44549,4.74059 -17.31997,5.68 -31.10627,4.25222c-9.73316,-1.00785 -23.47279,-0.27063 -30.53702,1.63931c-13.53122,3.66122 -43.84428,27.97075 -35.16252,28.19783c12.63536,0.32973 37.60747,10.52013 51.17603,20.87852c14.1129,10.77521 16.41479,11.47821 38.578,11.75817c32.23232,0.4075 56.41434,11.45954 79.39876,36.28546c15.1954,16.41167 29.71582,44.202 29.71582,56.86848c0,2.63159 5.72667,4.79348 15.87043,5.9973c8.73153,1.03273 21.79616,5.35027 29.0346,9.59317c16.19703,9.49053 35.10654,29.97088 37.88122,41.02295c1.98146,7.89789 2.71558,8.15917 17.94521,6.355c52.29275,-6.19326 73.90538,-74.12624 35.35538,-111.12092c-10.14376,-9.73626 -30.16997,-18.26248 -43.07285,-18.34025c-10.13753,-0.06222 -11.75194,-1.31268 -17.10844,-13.26061c-13.03975,-29.07502 -36.97914,-46.3048 -66.31546,-47.73257c-15.69622,-0.7621 -17.65903,-1.76683 -28.70175,-14.68526c-6.52299,-7.63036 -17.50971,-16.12861 -24.42775,-18.89706c-16.99025,-6.79982 -42.04323,-6.28968 -58.52334,1.18827M308.41111,626.34447c-6.28658,2.24587 -16.78494,8.24939 -23.3297,13.34148c-10.01622,7.79835 -14.00404,9.04259 -25.22719,7.88854c-45.08544,-4.64727 -82.3414,23.09329 -91.15071,67.86765l-3.53367,17.95143l-18.20029,6.63496c-32.10478,11.7053 -49.36876,36.20459 -49.43718,70.15397c-0.07465,37.01023 21.91437,65.52224 56.2028,72.87577c22.03569,4.72504 391.78035,4.56328 414.02755,-0.18041c27.77169,-5.92575 49.06391,-32.88243 49.12613,-62.19388c0.0311,-13.62766 -9.00526,-34.76747 -19.55652,-45.75109c-13.88894,-14.4582 -25.62534,-19.92667 -47.30331,-22.03569l-18.66376,-1.8166l-3.68299,-14.9279c-6.04705,-24.49307 -16.00729,-41.51132 -33.83428,-57.80479c-21.65307,-19.7898 -41.07272,-26.58652 -70.04197,-24.51174c-20.17242,1.44332 -21.59707,1.08872 -29.7407,-7.41263c-20.74788,-21.65619 -57.26665,-30.21664 -85.65422,-20.0791" id="CompoundPath 1"/></g></g></g></svg>