<svg version="1.1" xmlns="http://www.w3.org/2000/svg" xmlns:xlink="http://www.w3.org/1999/xlink" width="700" height="708.36426" viewBox="34,248.13574,700,708.36426"><g id="document" fill="#ffffff" fill-rule="nonzero" stroke="#000000" stroke-width="0" stroke-linecap="butt" stroke-linejoin="miter" stroke-miterlimit="10" stroke-dasharray="" stroke-dashoffset="0" font-family="none" font-weight="none" font-size="none" text-anchor="none" style="mix-blend-mode: normal"><rect x="34" y="183.21429" transform="scale(1,1.4)" width="700" height="500" id="Shape 1 1" vector-effect="non-scaling-stroke"/></g><g fill="none" fill-rule="none" stroke="none" stroke-width="1" stroke-linecap="none" stroke-linejoin="none" stroke-miterlimit="10" stroke-dasharray="" stroke-dashoffset="0" font-family="none" font-weight="none" font-size="none" text-anchor="none" style="mix-blend-mode: normal"><g id="stage"><g id="layer1 1"><path d="M391.69727,248.13574" id="Path 1" fill="none" fill-rule="nonzero" stroke="#000000" stroke-linecap="round" stroke-linejoin="round"/><path d="M417.22604,279.50847c-9.106,1.168 -26.122,5.308 -32.5,7.907c-14.613,5.956 -29.109,14.222 -38.5,21.954c-12.961,10.671 -28.609,27.726 -27.763,30.262c0.177,0.533 3.459,2.043 7.293,3.355c9.87,3.377 24.478,10.612 23.763,11.77c-0.347,0.562 -0.079,0.651 0.635,0.21c1.286,-0.795 6.993,2.717 19.572,12.046c5.813,4.311 14.49,12.775 24.51,23.909c3.364,3.738 12.865,17.531 13.539,19.655c0.63,1.986 1.163,2.082 8.669,1.568c17.8,-1.221 41.957,3.835 53.279,11.15c5.448,3.52 7.612,4.839 10.234,6.239c1.227,0.655 2.495,2.023 2.817,3.04c0.323,1.016 0.971,1.848 1.44,1.848c1.359,0 8.587,7.522 12.015,12.504c4.295,6.243 8.303,15.255 7.6,17.088c-0.319,0.832 -0.157,1.251 0.36,0.931c0.517,-0.319 1.462,1.345 2.101,3.698c0.639,2.354 1.561,5.584 2.049,7.178c1.036,3.385 1.017,22.947 -0.025,26.601c-0.608,2.131 -0.813,1.793 -1.388,-2.294c-1.275,-9.069 -7.089,-24.025 -12.944,-33.3c-2.931,-4.644 -15.931,-19.964 -16.911,-19.929c-0.36,0.013 -1.955,-1.135 -3.543,-2.551c-2.925,-2.606 -5.762,-4.25 -14.802,-8.582c-2.75,-1.317 -5.718,-2.794 -6.596,-3.282c-3.354,-1.864 -21.188,-5.061 -28.137,-5.045c-3.997,0.01 -10.417,0.685 -14.267,1.5c-3.849,0.816 -7.512,1.483 -8.139,1.483c-0.628,0 -2.133,-2.137 -3.346,-4.75c-4.758,-10.246 -15.488,-24.813 -25.97,-35.255c-26.113,-26.014 -57.676,-39.009 -94.69,-38.986c-27.642,0.018 -51.499,7.191 -74.855,22.508c-15.26,10.007 -32.925,28.672 -41.392,43.733c-1.159,2.062 -3.035,5.387 -4.169,7.388c-4.747,8.382 -12.914,34.388 -12.954,41.249c-0.023,3.909 -1.047,4.883 -6.509,6.195c-12.905,3.101 -16.629,4.361 -25.476,8.622c-9.78,4.71 -18.45,10.737 -25.568,17.774c-3.992,3.946 -13.764,16.053 -14.546,18.022c-0.219,0.55 -1.726,3.475 -3.349,6.5c-3.426,6.382 -4.823,9.868 -7.817,19.5c-2.99,9.62 -3.222,38.64 -0.384,48c4.555,15.02 10.873,28.141 17.078,35.461c16.35,19.292 32.592,29.344 56.086,34.711c7.631,1.744 19.243,1.828 251.5,1.828h243.5l8.5,-2.292c28.666,-7.729 50.587,-25.165 62.545,-49.748c7.705,-15.84 9.639,-24.536 9.666,-43.46c0.018,-13.279 -0.41,-16.55 -3.727,-28.5c-4.735,-17.054 -19.514,-37.923 -34.339,-48.49c-5.531,-3.942 -19.34,-11.145 -24,-12.517c-1.974,-0.582 -2.261,-1.163 -1.775,-3.595c0.807,-4.034 -1.915,-23.652 -4.475,-32.255c-8.278,-27.819 -29.331,-48.834 -57.895,-57.791c-7.042,-2.208 -8.965,-2.347 -31.5,-2.268c-20.183,0.071 -25.817,0.429 -35.425,2.25c-6.284,1.191 -11.887,2.166 -12.453,2.166c-2.013,0 13.028,-9.244 21.878,-13.445c12.508,-5.938 21.463,-7.954 35.58,-8.01l11.58,-0.045l-2.49,-5.441c-4.369,-9.541 -9.862,-18.321 -16.933,-27.059c-22.825,-28.21 -59.236,-48.427 -95.381,-52.959c-9.558,-1.198 -31.342,-1.174 -40.856,0.046M369.64604,683.84047c-2.686,1.17 -3.563,2.666 -6.865,11.711c-2.082,5.704 -4.694,12.845 -5.804,15.87c-1.11,3.025 -2.346,6.4 -2.746,7.5c-0.4,1.1 -1.465,3.703 -2.366,5.784c-2.446,5.646 -2.116,9.966 0.997,13.08c5.024,5.024 10.977,2.644 14.174,-5.667c1.099,-2.858 3.643,-9.922 5.651,-15.697c2.009,-5.775 4.126,-11.625 4.704,-13c1.728,-4.107 3.813,-11.372 3.824,-13.327c0.013,-2.123 -5.212,-7.691 -7.162,-7.634c-0.73,0.022 -2.713,0.643 -4.407,1.38M169.67804,691.06747c-1.348,1.455 -2.452,3.24 -2.452,3.966c0,0.726 -0.641,2.798 -1.425,4.604c-0.783,1.806 -3.986,10.484 -7.118,19.284c-3.132,8.8 -6.097,16.9 -6.59,18c-0.494,1.1 -1.307,3.35 -1.808,5c-0.502,1.65 -2.295,6.821 -3.985,11.492c-3.736,10.321 -3.848,13.325 -0.619,16.553c2.614,2.615 6.384,3.147 9.705,1.369c2.851,-1.525 4.336,-5.085 15.399,-36.914c1.242,-3.575 3.885,-11 5.872,-16.5c7.601,-21.039 7.955,-22.357 6.73,-25.045c-2.23,-4.896 -9.909,-5.909 -13.709,-1.809M463.25104,689.66247c-1.531,0.8 -3.191,3.195 -4.35,6.276c-3.212,8.537 -8.596,23.444 -13.356,36.983c-2.514,7.15 -4.963,13.495 -5.443,14.101c-0.48,0.605 -1.162,3.209 -1.516,5.786c-0.552,4.029 -0.318,5.029 1.674,7.149c3.086,3.285 8.791,3.39 11.623,0.214c1.104,-1.237 4.169,-8.325 6.811,-15.75c2.643,-7.425 7.444,-20.712 10.669,-29.527c3.225,-8.815 5.863,-17.203 5.863,-18.639c0,-5.598 -6.758,-9.318 -11.975,-6.593M290.99004,691.39247c-1.378,1.084 -2.982,3.672 -3.563,5.75c-1.519,5.431 -4.054,12.497 -5.208,14.515c-0.546,0.955 -0.996,2.305 -0.999,3c-0.004,0.695 -0.609,2.419 -1.346,3.831c-0.736,1.411 -1.668,3.886 -2.071,5.5c-0.402,1.613 -1.333,4.283 -2.068,5.933c-2.964,6.652 -3.574,10.015 -2.418,13.33c1.289,3.698 3.511,5.17 7.804,5.17c5.224,0 5.86,-1.113 14.578,-25.5c2.557,-7.15 5.521,-15.198 6.587,-17.883c2.757,-6.942 2.549,-10.992 -0.695,-13.544c-3.316,-2.609 -7.365,-2.647 -10.601,-0.102M558.63504,718.39347c-2.048,0.828 -2.561,1.833 -6.652,13.028c-1.105,3.025 -2.602,7.075 -3.325,9c-11.055,29.419 -13.611,37.614 -12.785,41c0.627,2.572 1.769,3.957 4.306,5.223c3.268,1.632 3.611,1.632 6.395,0c3.36,-1.969 3.714,-2.534 6.71,-10.723c1.207,-3.3 2.786,-7.575 3.508,-9.5c0.722,-1.925 2.957,-8.225 4.965,-14c2.008,-5.775 4.031,-11.4 4.494,-12.5c0.464,-1.1 1.414,-3.8 2.113,-6c0.699,-2.2 1.628,-4.428 2.066,-4.95c1.582,-1.889 0.743,-6.128 -1.744,-8.81c-2.614,-2.818 -5.986,-3.411 -10.051,-1.768M265.22604,769.71047c-3.269,1.646 -4.676,4.632 -12.587,26.711c-3.646,10.175 -7.221,19.85 -7.944,21.5c-0.723,1.65 -1.644,4.32 -2.046,5.933c-0.403,1.614 -1.335,4.089 -2.071,5.5c-0.737,1.412 -1.342,3.28 -1.346,4.15c-0.003,0.871 -0.27,1.848 -0.594,2.171c-1.462,1.462 -6.387,17.632 -6.399,21.011c-0.011,3.175 0.495,4.078 3.237,5.772c3.848,2.376 7.34,1.903 10.298,-1.396c1.127,-1.256 4.216,-8.326 6.867,-15.712c2.65,-7.386 7.948,-22.204 11.773,-32.929c3.825,-10.725 7.328,-20.4 7.786,-21.5c4.786,-11.513 5.267,-13.504 4.004,-16.553c-0.693,-1.673 -2.524,-3.695 -4.069,-4.494c-3.393,-1.755 -3.735,-1.763 -6.909,-0.164M428.19304,786.17147c-2.449,2.198 -3.099,3.627 -3.233,7.115c-0.14,3.643 0.29,4.759 2.605,6.75c4.614,3.969 9.265,3.044 13.015,-2.588c2.526,-3.793 2.07,-7.757 -1.277,-11.104c-3.684,-3.684 -7.137,-3.738 -11.11,-0.173M133.46504,796.08747c-1.752,0.706 -2.966,3.21 -6.732,13.885c-4.333,12.285 -3.358,16.529 4.145,18.029c4.69,0.938 7.891,-2.555 11.525,-12.58c4.392,-12.118 4.579,-14.335 1.471,-17.443c-2.454,-2.454 -6.974,-3.275 -10.409,-1.891M525.24404,814.11547c-0.815,0.345 -1.99,1.135 -2.61,1.755c-1.045,1.045 -16.181,41.441 -20.627,55.051c-1.078,3.3 -2.537,7.35 -3.241,9c-2.694,6.313 -8.54,23.271 -8.54,24.773c0,2.896 4.973,7.727 7.954,7.727c5.423,0 7.468,-2.984 13.526,-19.736c3.136,-8.67 6.298,-17.339 7.028,-19.264c0.73,-1.925 3.883,-10.7 7.006,-19.5c3.124,-8.8 6.042,-16.9 6.485,-18c5.544,-13.76 5.907,-16.737 2.462,-20.182c-1.621,-1.621 -7.19,-2.578 -9.443,-1.624M346.05304,818.92947c-2.056,1.135 -3.613,3.91 -6.75,12.031c-2.242,5.806 -4.077,10.991 -4.077,11.522c0,0.531 -0.437,1.748 -0.97,2.703c-0.534,0.955 -2.156,5.111 -3.604,9.236c-1.448,4.125 -3.658,10.425 -4.91,14c-1.253,3.575 -5.932,16.325 -10.397,28.333c-4.465,12.008 -8.119,23.271 -8.119,25.028c0,5.167 2.395,7.639 7.402,7.639c5.16,0 6.452,-1.28 9.59,-9.5c1.26,-3.3 3.327,-8.7 4.594,-12c1.268,-3.3 2.604,-7.125 2.97,-8.5c0.367,-1.375 1.239,-3.85 1.939,-5.5c0.701,-1.65 2.957,-7.725 5.015,-13.5c2.058,-5.775 4.778,-13.2 6.043,-16.5c1.266,-3.3 3.47,-9.487 4.899,-13.75c1.428,-4.262 3.106,-8.987 3.728,-10.5c2.742,-6.669 4.757,-12.91 4.787,-14.826c0.04,-2.532 -3.573,-6.076 -6.967,-6.833c-1.375,-0.307 -3.703,0.106 -5.173,0.917M418.43204,820.43147c-2.631,1.099 -2.87,1.619 -11.246,24.49c-7.999,21.84 -8.037,21.981 -6.793,25.549c1.212,3.476 3.499,4.951 7.678,4.951c3.572,0 7.413,-4.087 9.139,-9.725c0.635,-2.076 1.514,-4.675 1.952,-5.775c0.438,-1.1 1.703,-4.475 2.81,-7.5c1.107,-3.025 3.627,-9.899 5.6,-15.275c3.69,-10.059 3.762,-12.731 0.413,-15.51c-2.072,-1.72 -6.872,-2.325 -9.553,-1.205M174.09604,822.38447c-0.896,0.988 -3.902,8.263 -6.681,16.167c-5.783,16.449 -16.75,46.399 -18.079,49.37c-3.217,7.193 -13.128,36.5 -13.12,38.795c0.014,3.809 4.064,7.705 8.01,7.705c4.581,0 7.145,-3.301 10.873,-14c1.821,-5.225 3.893,-10.85 4.604,-12.5c0.712,-1.65 2.275,-5.925 3.474,-9.5c1.199,-3.575 2.557,-7.4 3.018,-8.5c0.461,-1.1 3.403,-9.2 6.538,-18c7.305,-20.5 9.11,-25.396 12.62,-34.227c3.418,-8.599 3.557,-11.134 0.8,-14.638c-1.675,-2.13 -2.872,-2.619 -6.25,-2.552c-2.664,0.053 -4.767,0.734 -5.807,1.88" id="CompoundPath 1" fill="#000000" fill-rule="evenodd" stroke="none" stroke-linecap="butt" stroke-linejoin="miter"/></g></g></g></svg>