<svg version="1.1" xmlns="http://www.w3.org/2000/svg" xmlns:xlink="http://www.w3.org/1999/xlink" width="700" height="700" viewBox="34,256.5,700,700"><g id="document" fill="#ffffff" fill-rule="nonzero" stroke="#000000" stroke-width="0" stroke-linecap="butt" stroke-linejoin="miter" stroke-miterlimit="10" stroke-dasharray="" stroke-dashoffset="0" font-family="none" font-weight="none" font-size="none" text-anchor="none" style="mix-blend-mode: normal"><rect x="34" y="183.21429" transform="scale(1,1.4)" width="700" height="500" id="Shape 1 1" vector-effect="non-scaling-stroke"/></g><g fill="#000000" fill-rule="evenodd" stroke="none" stroke-width="1" stroke-linecap="butt" stroke-linejoin="miter" stroke-miterlimit="10" stroke-dasharray="" stroke-dashoffset="0" font-family="none" font-weight="none" font-size="none" text-anchor="none" style="mix-blend-mode: normal"><g id="stage"><g id="layer1 1"><path d="M437.68345,303.42938c-35.04522,4.97917 -64.07213,19.25704 -88.21411,43.39393l-17.0005,16.99286l-11.10954,-3.86363c-16.23643,-5.64136 -55.35413,-3.46632 -72.15087,4.01135c-37.56409,16.73053 -60.33075,48.23811 -64.5917,89.39078l-1.71406,16.55479l-14.0079,1.51795c-26.43673,2.8678 -48.53865,18.66871 -61.00568,43.61805c-6.48184,12.96877 -7.76038,18.53627 -7.76038,33.77177c0,10.0322 1.82357,23.5944 4.05465,30.13991c5.53439,16.24152 23.55619,35.57497 41.27237,44.27515c14.2524,6.99631 15.50802,7.14658 66.88135,7.9845l52.35898,0.85321l17.97596,-53.06447l17.97596,-53.06447l71.44284,-0.67493l71.44029,-0.67747l-30.29527,52.88874l-30.29781,52.88619l105.00831,0.67493c115.257,0.74115 124.65248,-0.10442 143.73633,-12.94839c42.92785,-28.89193 48.66344,-89.69386 11.83795,-125.48531c-5.93935,-5.77125 -14.01554,-11.83286 -17.94794,-13.47051c-6.94028,-2.88817 -7.16695,-3.59621 -7.7018,-23.82362c-2.44247,-92.51072 -88.35674,-164.92901 -180.18744,-151.88129M506.45969,337.5781c48.29414,12.49759 80.37224,54.8804 79.91634,105.589c-0.15791,17.56081 -4.35773,34.2837 -4.70665,18.73238c-0.29544,-13.19544 -9.57631,-39.4437 -19.83519,-56.09527c-21.1774,-34.37539 -40.82666,-49.94198 -87.31251,-69.17356c-5.74833,-2.3788 -5.24405,-2.65131 5.19566,-2.80667c6.35959,-0.09678 18.39365,1.59435 26.74235,3.75412M349.72402,386.73564c14.24985,7.41655 21.26909,13.77613 31.3726,28.41566c7.34523,10.646 7.46239,11.13755 1.6402,6.9199c-13.05791,-9.45915 -38.64143,-20.20194 -54.62572,-22.93985c-20.29108,-3.47651 -46.64885,0.34892 -67.18698,9.75205c-16.44018,7.52606 -16.47838,7.53116 -13.20818,1.42371c3.54018,-6.61682 25.5555,-22.46867 37.48259,-26.99195c15.46472,-5.86294 50.23233,-4.02154 64.52548,3.42047M312.73553,548.22635c-3.8076,10.35311 -57.24647,168.04386 -57.24647,168.92763c0,0.59343 19.60597,1.07733 43.56966,1.07733c33.86091,0 43.27677,0.71058 42.25037,3.18361c-0.72586,1.75226 -20.9329,44.8915 -44.90678,95.87007c-23.97388,50.97602 -43.11122,93.16017 -42.52798,93.74341c0.58324,0.58324 3.73884,-2.73027 7.01159,-7.36306c3.2753,-4.63534 30.69004,-41.66204 60.91908,-82.28495c30.23159,-40.62291 66.81259,-90.4783 81.29421,-110.78975c14.48162,-20.31145 27.59302,-38.54974 29.13643,-40.52867c2.40681,-3.08428 -3.83307,-3.35935 -43.67154,-1.92545c-25.56314,0.92197 -46.48076,0.72841 -46.48076,-0.42788c0,-1.15629 14.89931,-28.63215 33.10958,-61.05662c18.21027,-32.42192 33.10958,-59.54886 33.10958,-60.27981c0,-0.73096 -21.23852,-1.32948 -47.19643,-1.32948c-35.43744,0 -47.48933,0.79463 -48.37055,3.18361M196.26875,671.84988c-9.33436,10.80136 -22.57055,25.65738 -29.41659,33.01025l-12.44411,13.37118h18.70437c10.28689,0 18.70437,0.45335 18.70437,1.00857c0,0.55522 -5.75343,13.33043 -12.78539,28.39019c-7.03197,15.05977 -12.4543,27.71017 -12.04934,28.11513c0.40496,0.40496 14.72867,-15.80855 31.83104,-36.02832l31.09499,-36.76692h-16.49876c-9.07457,0 -16.49876,-0.92452 -16.49876,-2.05279c0,-1.12827 4.06993,-12.14612 9.04656,-24.48581c4.97662,-12.33969 8.64924,-22.83288 8.16533,-23.31679c-0.48646,-0.48646 -8.51935,7.95394 -17.85371,18.7553M455.96503,699.08124l-40.05495,41.70024l14.6599,1.59435c28.97598,3.14796 28.23483,0.14517 8.20863,33.30315c-9.75714,16.15748 -17.74164,30.10934 -17.74164,31.00585c0,0.89396 10.60016,-8.64924 23.55874,-21.20796c12.95858,-12.55872 31.31657,-29.83173 40.80119,-38.38165c18.69418,-16.85787 18.56683,-18.44968 -1.53323,-18.93104c-23.93059,-0.5705 -23.82616,0.35402 -4.08521,-36.47402c9.70365,-18.10075 17.3265,-33.22419 16.94192,-33.60877c-0.38458,-0.38458 -18.72474,18.0651 -40.75535,40.99985" id="CompoundPath 1"/></g></g></g></svg>