<svg version="1.1" xmlns="http://www.w3.org/2000/svg" xmlns:xlink="http://www.w3.org/1999/xlink" width="700" height="700" viewBox="34,256.5,700,700"><g id="document" fill="#ffffff" fill-rule="nonzero" stroke="#000000" stroke-width="0" stroke-linecap="butt" stroke-linejoin="miter" stroke-miterlimit="10" stroke-dasharray="" stroke-dashoffset="0" font-family="none" font-weight="none" font-size="none" text-anchor="none" style="mix-blend-mode: normal"><rect x="34" y="183.21429" transform="scale(1,1.4)" width="700" height="500" id="Shape 1 1" vector-effect="non-scaling-stroke"/></g><g fill="#000000" fill-rule="evenodd" stroke="none" stroke-width="1" stroke-linecap="butt" stroke-linejoin="miter" stroke-miterlimit="10" stroke-dasharray="" stroke-dashoffset="0" font-family="none" font-weight="none" font-size="none" text-anchor="none" style="mix-blend-mode: normal"><g id="stage"><g id="layer1 1"><path d="M377.08551,299.15963c-0.97666,2.00724 -1.26027,32.81886 -0.63313,69.31068c1.00062,58.37172 1.49794,65.92933 4.45387,67.79077c2.41468,1.51991 4.20222,1.37012 6.51704,-0.55124c2.82611,-2.34677 3.1297,-10.40569 2.66434,-70.78665l-0.52528,-68.14029l-5.35863,-0.61915c-3.61703,-0.41743 -5.92984,0.55524 -7.11821,2.99588M167.26807,384.06286c-5.76008,5.76008 -1.68968,11.09274 42.04218,55.06627c24.44238,24.5762 46.01072,45.54936 47.93408,46.6079c4.73149,2.60442 11.48421,-1.17438 11.48421,-6.42916c0,-4.87729 -91.21655,-97.71162 -95.96801,-97.66967c-1.70366,0.01598 -4.17426,1.10648 -5.49245,2.42467M547.71484,426.03913c-23.96304,24.47833 -44.88028,46.40019 -46.48207,48.717c-3.49719,5.06104 -1.95331,10.14005 3.62102,11.90762c3.35139,1.06454 12.36499,-6.99039 50.74621,-45.34564c30.66782,-30.64785 46.66981,-48.04792 46.66981,-50.74821c0,-4.84933 -3.54313,-8.87779 -7.88915,-8.96966c-1.70366,-0.03595 -22.70278,19.96255 -46.66582,44.43888M356.75747,457.60771c-81.55584,17.18437 -134.82258,92.47881 -121.17535,171.28643c10.63737,61.42952 53.31068,106.89299 114.96589,122.48554c13.90887,3.51716 20.70752,4.07639 39.87316,3.28149c40.76793,-1.69167 68.62762,-14.03869 98.00521,-43.43626c24.58419,-24.60017 37.12095,-47.90811 43.32242,-80.54323c13.80102,-72.61214 -32.19972,-145.84741 -106.23589,-169.12939c-15.79827,-4.96717 -53.60627,-7.13619 -68.75544,-3.94457M76.99223,601.364c-1.51791,2.8381 -1.51791,5.15092 0,7.98901c2.07115,3.87068 4.18225,3.99451 67.73285,3.99451c56.43438,0 65.9473,-0.42741 68.1303,-3.0558c1.93734,-2.33479 2.00524,-4.2162 0.28561,-7.98901l-2.24691,-4.93322h-65.88139c-63.8382,0 -65.9493,0.12383 -68.02045,3.99451M554.33573,601.364c-1.51791,2.8381 -1.51791,5.15092 0,7.98901c2.07115,3.87068 4.18225,3.99451 67.57706,3.99451c66.14703,0 70.23341,-0.42142 70.23341,-7.24803c0,-1.34815 -1.41206,-3.86468 -3.13768,-5.59231c-2.72425,-2.72226 -11.68393,-3.13768 -67.8367,-3.13768c-62.65383,0 -64.76493,0.12583 -66.83608,3.99451M256.6811,723.23639c-1.56385,0.96667 -22.85856,21.80002 -47.32292,46.29633c-45.87091,45.93283 -49.3701,50.77217 -40.24265,55.65745c3.88466,2.07914 8.16877,-1.65772 50.92996,-44.41691c32.50729,-32.50729 46.68579,-48.01596 46.68579,-51.06377c0,-5.18087 -5.94383,-9.01161 -10.05018,-6.4731M501.74207,724.52861c-4.84534,4.84534 0.93471,12.02346 45.20183,56.14478c25.5928,25.50892 47.47271,46.38021 48.62313,46.38021c2.92398,0 9.25927,-7.33991 8.40644,-9.73861c-0.38747,-1.0905 -20.78142,-22.71276 -45.31767,-48.04992c-36.87728,-38.08163 -45.56334,-46.06864 -50.0971,-46.06864c-3.01785,0 -6.08563,0.59918 -6.81662,1.33217M377.91237,776.45719c-0.73299,0.73099 -1.33217,31.5586 -1.33217,68.50578c0,69.70613 0.26164,71.96702 8.31856,71.96702c6.96043,0 7.65947,-6.46111 7.65947,-70.90249c0,-39.72936 -0.76695,-64.60914 -2.06716,-67.0398c-1.98926,-3.71489 -9.82049,-5.29072 -12.5787,-2.53052" id="CompoundPath 1"/></g></g></g></svg>